Coordinates
version=1
nRows=34
nColumns=38
inDegrees=no

Units are S.I. units (second, meters, Newtons, ...)
If the header above contains a line with 'inDegrees', this indicates whether rotational values are in degrees (yes) or radians (no).

endheader
time	pelvis_tilt	pelvis_list	pelvis_rotation	pelvis_tx	pelvis_ty	pelvis_tz	hip_flexion_r	hip_adduction_r	hip_rotation_r	knee_angle_r	ankle_angle_r	subtalar_angle_r	mtp_angle_r	hip_flexion_l	hip_adduction_l	hip_rotation_l	knee_angle_l	ankle_angle_l	subtalar_angle_l	mtp_angle_l	lumbar_extension	lumbar_bending	lumbar_rotation	arm_flex_r	arm_add_r	arm_rot_r	elbow_flex_r	pro_sup_r	wrist_flex_r	wrist_dev_r	arm_flex_l	arm_add_l	arm_rot_l	elbow_flex_l	pro_sup_l	wrist_flex_l	wrist_dev_l
0.47	0.912607	1.51512	0.809622	0.65997	0.777875	1.02196	0.21159	0.0986047	-0.0478226	0.4049	-0.0479651	0	0	0.420524	-0.153354	-0.11889	1.279	-0.129956	0	0	-0.1473	0.198731	0.0506621	-0.296255	-0.332076	0.20749	0.482857	1.00157	0	0	0.011515	-0.394322	0.905199	0.582854	1.05775	0	0
0.48	1.06987	1.52192	0.648307	0.660538	0.787326	1.02383	0.172327	0.104479	-0.0358159	0.367756	-0.0675344	0	0	0.42289	-0.157916	-0.138765	1.25791	-0.115972	0	0	-0.158463	0.199419	0.062736	-0.308206	-0.328738	0.17525	0.495885	1.02367	0	0	0.0222388	-0.39072	0.964275	0.569992	1.0093	0	0
0.49	1.2095	1.52621	0.505121	0.661038	0.796771	1.02536	0.1363	0.109277	-0.0230852	0.331502	-0.0782758	0	0	0.427192	-0.160918	-0.158816	1.23473	-0.103331	0	0	-0.168421	0.198753	0.0633194	-0.309715	-0.330725	0.170836	0.505285	1.02862	0	0	0.0146969	-0.385348	0.96857	0.561627	1.00112	0	0
0.5	1.36682	1.5296	0.344818	0.66147	0.806151	1.0267	0.0997031	0.113285	-0.00943381	0.293155	-0.0898257	0	0	0.430464	-0.162418	-0.178895	1.20927	-0.0905237	0	0	-0.178183	0.197621	0.0618429	-0.310295	-0.332975	0.167687	0.515079	1.03128	0	0	0.00539041	-0.380237	0.966911	0.553714	0.991844	0	0
0.51	1.50787	1.53186	0.201184	0.661843	0.815486	1.02773	0.0662386	0.116103	0.00260538	0.258375	-0.0972665	0	0	0.434074	-0.162318	-0.198869	1.18185	-0.0774452	0	0	-0.186263	0.195839	0.0581274	-0.308928	-0.335271	0.1674	0.523095	1.03148	0	0	-0.0060039	-0.374636	0.958268	0.54487	0.984324	0	0
0.52	1.61816	1.53357	0.0880143	0.662192	0.82473	1.02842	0.0373574	0.117575	0.012418	0.229523	-0.0993189	0	0	0.43799	-0.160937	-0.219609	1.15229	-0.0644887	0	0	-0.192885	0.193265	0.0538028	-0.305958	-0.337775	0.1707	0.529304	1.03047	0	0	-0.018934	-0.36808	0.941569	0.534897	0.980536	0	0
0.53	1.86653	1.53368	-0.1633	0.662576	0.833784	1.02929	0.000290029	0.119365	0.0255513	0.191247	-0.128018	0	0	0.434753	-0.160803	-0.243601	1.11996	-0.0496832	0	0	-0.201732	0.192196	0.0652757	-0.31929	-0.329967	0.127361	0.542373	1.06527	0	0	-0.00540387	-0.367207	1.01302	0.522949	0.887529	0	0
0.54	1.96939	1.5336	-0.270157	0.662933	0.842889	1.02955	-0.0262326	0.119636	0.0338075	0.164806	-0.135321	0	0	0.436242	-0.158815	-0.265489	1.08508	-0.0385704	0	0	-0.208207	0.189741	0.0643103	-0.318286	-0.33158	0.125878	0.549554	1.06849	0	0	-0.014754	-0.360862	1.00405	0.512271	0.863655	0	0
0.55	2.04001	1.53354	-0.345827	0.663329	0.85203	1.02947	-0.0513136	0.119367	0.0410326	0.140495	-0.140635	0	0	0.437662	-0.156582	-0.286975	1.04726	-0.0312871	0	0	-0.213623	0.186989	0.0642028	-0.317131	-0.333491	0.125576	0.556343	1.0704	0	0	-0.0244811	-0.353755	0.99154	0.500706	0.841945	0	0
0.56	2.07778	1.5333	-0.388665	0.663718	0.861072	1.02909	-0.0736023	0.119047	0.0461572	0.118976	-0.145565	0	0	0.439757	-0.153993	-0.305671	1.0066	-0.0284613	0	0	-0.218048	0.184345	0.0643517	-0.315359	-0.335364	0.126331	0.562081	1.07079	0	0	-0.0339049	-0.346098	0.976672	0.488195	0.824457	0	0
0.57	2.09099	1.53278	-0.407024	0.664149	0.870054	1.02847	-0.0949928	0.11905	0.0516428	0.0965138	-0.151104	0	0	0.442136	-0.151031	-0.32041	0.963526	-0.0298011	0	0	-0.221799	0.181992	0.064108	-0.312524	-0.337498	0.129339	0.566846	1.07006	0	0	-0.043174	-0.337902	0.958587	0.474728	0.812923	0	0
0.58	2.07103	1.53275	-0.392372	0.664624	0.87907	1.02759	-0.114585	0.118911	0.0569552	0.0749488	-0.153701	0	0	0.445334	-0.146934	-0.330828	0.918667	-0.0330132	0	0	-0.223911	0.179372	0.0633333	-0.308361	-0.339865	0.136293	0.56965	1.06807	0	0	-0.0523029	-0.329326	0.93752	0.45996	0.812247	0	0
0.59	2.06704	1.53263	-0.393535	0.665141	0.888065	1.02658	-0.135541	0.118421	0.0636158	0.0514251	-0.166667	0	0	0.446996	-0.141286	-0.337004	0.871868	-0.0363497	0	0	-0.223943	0.176829	0.0706969	-0.312615	-0.335727	0.119362	0.573698	1.0859	0	0	-0.0477212	-0.325387	0.972089	0.444717	0.764926	0	0
0.6	1.99924	1.53363	-0.330211	0.665606	0.897075	1.02523	-0.152306	0.117577	0.0689086	0.0315197	-0.17075	0	0	0.450351	-0.132159	-0.334684	0.822207	-0.0353306	0	0	-0.22246	0.173333	0.0700476	-0.308508	-0.336103	0.123674	0.573535	1.0854	0	0	-0.053156	-0.318143	0.964038	0.428288	0.760424	0	0
0.61	1.86164	1.53502	-0.196755	0.666034	0.906021	1.02352	-0.16197	0.116695	0.0681682	0.0223481	-0.156583	0	0	0.455037	-0.12002	-0.32429	0.770944	-0.0276747	0	0	-0.219385	0.16919	0.067449	-0.301672	-0.337856	0.135357	0.571707	1.07557	0	0	-0.0614039	-0.310668	0.938791	0.412889	0.780785	0	0
0.62	1.76982	1.53578	-0.107949	0.666344	0.915076	1.02187	-0.177458	0.11523	0.0720211	0.00323175	-0.160429	0	0	0.456512	-0.106692	-0.310546	0.71907	-0.0217073	0	0	-0.216418	0.165365	0.0664743	-0.297901	-0.336579	0.136714	0.569583	1.07771	0	0	-0.0636108	-0.304427	0.939778	0.395573	0.773492	0	0
0.63	1.69547	1.53616	-0.0366447	0.666563	0.92431	1.02017	-0.1911	0.113563	0.0715228	0	-0.173345	0	0	0.45759	-0.0949669	-0.298802	0.671513	-0.0172962	0	0	-0.213608	0.161293	0.0639386	-0.291637	-0.336079	0.144908	0.564194	1.08039	0	0	-0.0664949	-0.297387	0.937459	0.376706	0.767453	0	0
0.64	1.63025	1.5346	0.0238198	0.666926	0.933718	1.01813	-0.202824	0.113727	0.0709096	0	-0.172572	0	0	0.462838	-0.0918535	-0.302762	0.643186	-0.0117029	0	0	-0.212431	0.158489	0.0665675	-0.290148	-0.335281	0.14628	0.564273	1.08156	0	0	-0.0684694	-0.294743	0.938066	0.366656	0.763821	0	0
0.65	1.58415	1.53403	0.0644334	0.667314	0.943342	1.01611	-0.216212	0.11304	0.0710009	0	-0.170356	0	0	0.465652	-0.0871765	-0.305168	0.614022	-0.0061902	0	0	-0.211227	0.15439	0.0694479	-0.288919	-0.334386	0.148047	0.564348	1.08248	0	0	-0.0700736	-0.291207	0.938301	0.35411	0.759422	0	0
0.66	1.56333	1.53404	0.0786862	0.667774	0.9531	1.01415	-0.230016	0.111527	0.0714113	0	-0.167232	0	0	0.467	-0.0824972	-0.30666	0.588113	-0.00146144	0	0	-0.210922	0.149496	0.0733284	-0.287836	-0.333571	0.150306	0.564736	1.0833	0	0	-0.0712461	-0.287752	0.93946	0.341045	0.755911	0	0
0.67	1.56537	1.53443	0.0689679	0.668326	0.962978	1.01226	-0.243998	0.109137	0.0717248	0	-0.16393	0	0	0.46734	-0.0782795	-0.307399	0.566595	0.00219514	0	0	-0.211616	0.144047	0.0786462	-0.287325	-0.332898	0.152712	0.565868	1.08412	0	0	-0.0717106	-0.284851	0.941238	0.328553	0.752998	0	0
0.68	1.60212	1.53507	0.0239229	0.668851	0.97302	1.01049	-0.258542	0.106123	0.0717106	0	-0.160668	0	0	0.46624	-0.0744781	-0.307661	0.549905	0.00478973	0	0	-0.21371	0.137736	0.0850968	-0.286929	-0.332183	0.155788	0.566751	1.08491	0	0	-0.0716457	-0.283558	0.94336	0.318654	0.750947	0	0
0.69	1.79416	1.53632	-0.175617	0.669381	0.983079	1.00937	-0.277706	0.101972	0.0701837	0	-0.148628	0	0	0.457098	-0.0685885	-0.306511	0.531305	0.00371771	0	0	-0.223125	0.130383	0.0916869	-0.286295	-0.335348	0.171536	0.570828	1.06917	0	0	-0.0705134	-0.281944	0.931356	0.308463	0.767325	0	0
0.7	1.80297	1.5368	-0.194739	0.669782	0.993462	1.00746	-0.289504	0.0978444	0.0692888	0	-0.148195	0	0	0.459152	-0.0666882	-0.306055	0.530282	0.00441255	0	0	-0.22325	0.124127	0.0980066	-0.285802	-0.335288	0.172493	0.572679	1.07028	0	0	-0.071653	-0.282421	0.933154	0.303048	0.764918	0	0
0.71	1.84359	1.53758	-0.245035	0.670187	1.00387	1.00579	-0.300669	0.0932181	0.0686258	0	-0.147492	0	0	0.459778	-0.0642164	-0.305852	0.53283	0.00477262	0	0	-0.224094	0.117581	0.104957	-0.286995	-0.33502	0.173612	0.575215	1.07156	0	0	-0.071537	-0.283215	0.934925	0.297116	0.763372	0	0
0.72	1.88319	1.53845	-0.29473	0.670555	1.01444	1.00417	-0.310555	0.0881065	0.0687033	0	-0.146858	0	0	0.460484	-0.0619498	-0.305319	0.540288	0.00422548	0	0	-0.224699	0.111003	0.112555	-0.289108	-0.335021	0.174524	0.578822	1.07295	0	0	-0.0710623	-0.284189	0.935868	0.291628	0.762102	0	0
0.73	1.92829	1.53918	-0.350362	0.670973	1.02523	1.00264	-0.319491	0.0827551	0.0708213	0	-0.146632	0	0	0.460769	-0.0602417	-0.304321	0.55215	0.00249145	0	0	-0.225147	0.103998	0.120594	-0.291542	-0.334658	0.175328	0.582366	1.07425	0	0	-0.0707669	-0.285994	0.935047	0.287402	0.760424	0	0
0.74	2.06407	1.53871	-0.496601	0.671521	1.03603	1.00151	-0.330166	0.0773444	0.0774167	0	-0.148512	0	0	0.458541	-0.0610086	-0.309142	0.571122	-0.000623551	0	0	-0.228018	0.0976019	0.127034	-0.294043	-0.336402	0.178636	0.589727	1.0721	0	0	-0.0732889	-0.284285	0.888022	0.283231	0.800338	0	0
0.75	2.07799	1.53924	-0.524335	0.67217	1.04763	1.00001	-0.336892	0.071072	0.0847249	0	-0.143744	0	0	0.458836	-0.0620464	-0.306326	0.590435	-0.00831617	0	0	-0.230929	0.0899331	0.136705	-0.297982	-0.334902	0.172672	0.596598	1.07841	0	0	-0.0756138	-0.286228	0.876928	0.280368	0.797962	0	0
0.76	2.11824	1.54006	-0.576426	0.672709	1.05927	0.998754	-0.342074	0.0647571	0.0907826	0.00266812	-0.153754	0	0	0.456251	-0.060467	-0.29611	0.604657	-0.012895	0	0	-0.228326	0.0828348	0.146578	-0.302496	-0.333915	0.172942	0.599423	1.07664	0	0	-0.0746804	-0.290682	0.889397	0.279166	0.77942	0	0
0.77	2.1541	1.54131	-0.625201	0.673239	1.07111	0.997541	-0.341037	0.0578787	0.0897877	0.0281422	-0.153961	0	0	0.452866	-0.0594282	-0.288449	0.618116	-0.020007	0	0	-0.225844	0.0755069	0.156799	-0.307636	-0.332466	0.16928	0.603383	1.07948	0	0	-0.074974	-0.293738	0.887442	0.277821	0.770856	0	0
0.78	2.24349	1.54377	-0.727235	0.673672	1.08308	0.996621	-0.338425	0.0488509	0.0858882	0.0569454	-0.151977	0	0	0.448494	-0.0573704	-0.288713	0.628141	-0.0298151	0	0	-0.223471	0.0654813	0.165302	-0.309641	-0.330145	0.168996	0.60292	1.08348	0	0	-0.0754663	-0.297611	0.88335	0.277262	0.763847	0	0
0.79	2.47851	1.54604	-0.973597	0.67395	1.09495	0.996451	-0.333752	0.0373381	0.0815681	0.0936196	-0.150028	0	0	0.443283	-0.0548373	-0.300422	0.635696	-0.0466739	0	0	-0.223422	0.0523054	0.171025	-0.307577	-0.327089	0.172889	0.59818	1.08657	0	0	-0.0748825	-0.301353	0.877126	0.275394	0.759548	0	0
0.8	2.78149	1.54773	-1.28491	0.674108	1.10633	0.996761	-0.322485	0.0255142	0.0772899	0.141835	-0.141157	0	0	0.441861	-0.0531952	-0.312943	0.644917	-0.0742212	0	0	-0.220914	0.0382566	0.168208	-0.297284	-0.32683	0.194686	0.588496	1.07793	0	0	-0.0782291	-0.300672	0.816031	0.271063	0.808574	0	0
